<svg xmlns="http://www.w3.org/2000/svg" width="103.725" height="103.725" version="1.0">
  <path d="m0 0 41.52 41.28L82.98 0l-41.7-41.7L0 0" style="fill:#0093dd;fill-opacity:1;fill-rule:evenodd;stroke:none" transform="matrix(1.25 0 0 -1.25 0 51.6)"/>
  <path d="M504.62782 721.05623h20.1v-2.1h-20.1v2.1z" style="fill:#1f1a17;fill-opacity:1;fill-rule:nonzero;stroke:none" transform="translate(-461.42782 -676.05622)"/>
  <path d="M524.72782 721.05623h-20.1v-2.1h20.1v2.1z" style="fill:none;stroke:#1f1a17;stroke-width:.29999998;stroke-linecap:round;stroke-linejoin:round;stroke-miterlimit:10;stroke-dasharray:none;stroke-opacity:1" transform="translate(-461.42782 -676.05622)"/>
  <path d="m0 0 .72.24.48.72.72 1.44.24 1.68v.72l.72-1.92.48-1.92-.24-1.92-.72-1.68 1.44.72.72.96.72 1.44c1.207-3.593.88-4.381-1.2-7.44l1.68.48.96.72.24.72v.48l-.24-3.36-.72-2.4-1.2-1.92-1.44-.96-1.44-.72-1.44-.24h-1.2l.48.24 1.2.72L2.4-12l1.2 2.16-1.2-.48-1.2-.24H.24l.72.48.72.96.48 1.44v2.16l-.48-1.2-.72-.72-1.68-.96.24 2.64-.48 2.16-.96 1.44-.96.96.24-1.2-.72-2.16L-4.08-6v-.96l.24-1.44-.96.48-.48.48-.48.72-.72 1.2v-2.16l.24-1.2.72-.72.72-.96-1.2.24h-.72l-.48.24-.96.72.72-2.4L-6-13.2l1.44-.72 1.68-.24-3.6.24-2.4.72-1.68 1.44-.96 1.44-.96 3.6-.72 3.12.96-.72.72-.96.96-.72 1.68-.24-.96 1.44-.48 1.2-.24 1.92.24 1.44-.24 1.92 1.2-1.92.72-.72 1.2-.72-.48 1.44v1.2l.24 1.92.24 1.2-.48 1.2.96-.24.72-.48.48-1.2.24-1.44.72-1.44c2.113 3.536-.076 6.256 1.68 10.08l.72-2.4L0 2.88l.24-1.44L0 0" style="fill:#1f1a17;fill-opacity:1;fill-rule:evenodd;stroke:none" transform="matrix(1.25 0 0 -1.25 56.4 23.1)"/>
  <path d="m0 0 .72.24.48.72.72 1.44.24 1.68v.72l.72-1.92.48-1.92-.24-1.92-.72-1.68 1.44.72.72.96.72 1.44c1.207-3.593.88-4.381-1.2-7.44l1.68.48.96.72.24.72v.48l-.24-3.36-.72-2.4-1.2-1.92-1.44-.96-1.44-.72-1.44-.24h-1.2l.48.24 1.2.72L2.4-12l1.2 2.16-1.2-.48-1.2-.24H.24l.72.48.72.96.48 1.44v2.16l-.48-1.2-.72-.72-1.68-.96.24 2.64-.48 2.16-.96 1.44-.96.96.24-1.2-.72-2.16L-4.08-6v-.96l.24-1.44-.96.48-.48.48-.48.72-.72 1.2v-2.16l.24-1.2.72-.72.72-.96-1.2.24h-.72l-.48.24-.96.72.72-2.4L-6-13.2l1.44-.72 1.68-.24-3.6.24-2.4.72-1.68 1.44-.96 1.44-.96 3.6-.72 3.12.96-.72.72-.96.96-.72 1.68-.24-.96 1.44-.48 1.2-.24 1.92.24 1.44-.24 1.92 1.2-1.92.72-.72 1.2-.72-.48 1.44v1.2l.24 1.92.24 1.2-.48 1.2.96-.24.72-.48.48-1.2.24-1.44.72-1.44c2.113 3.536-.076 6.256 1.68 10.08l.72-2.4L0 2.88l.24-1.44L0 0z" style="fill:none;stroke:#1f1a17;stroke-width:.23999999;stroke-linecap:round;stroke-linejoin:round;stroke-miterlimit:10;stroke-dasharray:none;stroke-opacity:1" transform="matrix(1.25 0 0 -1.25 56.4 23.1)"/>
  <text transform="matrix(.99759 0 0 1.00242 -461.42782 -676.05622)" x="510.95938" y="761.81519" style="font-size:14.96384525px">
      <tspan style="font-size:12.56115055px;font-variant:normal;font-weight:700;font-stretch:normal;writing-mode:lr-tb;fill:#1f1a17;fill-opacity:1;fill-rule:nonzero;stroke:none;font-family:Arial;-inkscape-font-specification:Arial-BoldMT" x="510.95938" y="761.81519">4</tspan>
    </text>
  <path d="m0 0 36.24-36L72.18 0 36.24 36 0 0z" style="fill:none;stroke:#1f1a17;stroke-width:.71899998;stroke-linecap:round;stroke-linejoin:round;stroke-miterlimit:10;stroke-dasharray:none;stroke-opacity:1" transform="matrix(1.25 0 0 -1.25 6.9 51.9)"/>
  <path d="M504.62782 721.05623h20.1v-2.1h-20.1v2.1z" style="fill:#1f1a17;fill-opacity:1;fill-rule:nonzero;stroke:none" transform="translate(-461.42782 -676.05622)"/>
  <path d="m0 0 .72.24.48.72.72 1.44.24 1.68v.72l.72-1.92.48-1.92-.24-1.92-.72-1.68 1.44.72.72.96.72 1.44c1.207-3.593.88-4.381-1.2-7.44l1.68.48.96.72.24.72v.48l-.24-3.36-.72-2.4-1.2-1.92-1.44-.96-1.44-.72-1.44-.24h-1.2l.48.24 1.2.72L2.4-12l1.2 2.16-1.2-.48-1.2-.24H.24l.72.48.72.96.48 1.44v2.16l-.48-1.2-.72-.72-1.68-.96.24 2.64-.48 2.16-.96 1.44-.96.96.24-1.2-.72-2.16L-4.08-6v-.96l.24-1.44-.96.48-.48.48-.48.72-.72 1.2v-2.16l.24-1.2.72-.72.72-.96-1.2.24h-.72l-.48.24-.96.72.72-2.4L-6-13.2l1.44-.72 1.68-.24-3.6.24-2.4.72-1.68 1.44-.96 1.44-.96 3.6-.72 3.12.96-.72.72-.96.96-.72 1.68-.24-.96 1.44-.48 1.2-.24 1.92.24 1.44-.24 1.92 1.2-1.92.72-.72 1.2-.72-.48 1.44v1.2l.24 1.92.24 1.2-.48 1.2.96-.24.72-.48.48-1.2.24-1.44.72-1.44c2.113 3.536-.076 6.256 1.68 10.08l.72-2.4L0 2.88l.24-1.44L0 0" style="fill:#1f1a17;fill-opacity:1;fill-rule:evenodd;stroke:none" transform="matrix(1.25 0 0 -1.25 56.4 23.1)"/>
</svg>
